<svg version="1.2" baseProfile="tiny" viewBox="0 0 222.432 127.8" xmlns:xlink="http://www.w3.org/1999/xlink" xmlns="http://www.w3.org/2000/svg">
<path style="fill:#ffffff;" d="M187.9328,52.0325L187.9328,38.7937C187.9328,38.0026,187.2855,37.3547,186.4937,37.3547L183.8734,37.3547C183.3641,37.3547,182.917,37.6256,182.6589,38.0294C182.6656,32.3564,182.6812,28.2834,182.7123,27.4796C182.8347,24.3344,179.5338,23.0014,179.5338,23.0014L168.6991,17.4805C168.7036,16.3788,168.708,15.6236,168.7147,15.2849C168.7881,10.863,166.7373,8.9895,166.7373,8.9895L159.9041,1.5004L24.7055,1.5004L24.7055,1.5847L6.8042,9.2361C6.8042,9.2361,1.3035,11.0994,1.5059,15.4996C1.7061,19.8997,1.5192,94.1017,1.5059,99.5C1.4925,104.8982,6.8042,105.7647,6.8042,105.7647L24.7055,113.4148L24.7055,113.5005L44.106,113.5005L44.106,126.2996L61.6359,126.2996L61.6359,113.5005L121.4545,113.5005L121.4545,126.2996L138.9866,126.2996L138.9866,113.5005L159.9041,113.5005L166.735,106.0127C166.735,106.0127,168.7125,104.566,168.7125,99.716C168.7125,99.3262,168.7125,98.567,168.7125,97.5127L179.5338,91.9994C179.5338,91.9994,182.719,91.3796,182.7123,87.5213C182.7101,86.5155,182.699,82.1652,182.6901,76.2314C182.9503,76.6072,183.3841,76.8551,183.8734,76.8564L186.4937,76.8564C187.2855,76.8564,187.9328,76.2084,187.9328,75.4161L187.9328,62.1773L219.3046,62.1773L219.3046,52.0325L187.9328,52.0325Z"/>
</svg>