<svg version="1.2" baseProfile="tiny" id="EdgeSVG_2Cp24" x="0px" y="0px" width="222.432px" height="127.8px" viewBox="0 0 222.432 127.8" xmlns:xlink="http://www.w3.org/1999/xlink" xmlns="http://www.w3.org/2000/svg">
  <linearGradient id="SVGID_1_" gradientUnits="userSpaceOnUse" x1="0" y1="63.8999" x2="222.4321" y2="63.8999">
    <stop offset="0" style="stop-color:#000000;stop-opacity:0.5"/>
    <stop offset="0.8581" style="stop-color:#000000;stop-opacity:0.5"/>
    <stop offset="1" style="stop-color:#000000;stop-opacity:0.5"/>
  </linearGradient>
  <path fill="url(#SVGID_1_)" d="M222.429,53.567l0.001-0.222c0.036-0.928-0.542-1.629-1.169-1.949l-1.43-0.863h-30.398V38.794&#xD;&#xA;&#x9;&#x9;c0-1.621-1.318-2.939-2.939-2.939h-2.328c0.008-4.755,0.023-7.689,0.046-8.32c0.145-3.874-3.343-5.62-3.928-5.884l-10.08-5.293&#xD;&#xA;&#x9;&#x9;c0.004-0.49,0.007-0.844,0.011-1.048c0.078-4.685-1.946-6.937-2.384-7.369L160.567,0H24.396L6.211,7.839&#xD;&#xA;&#x9;&#x9;C5.5,8.096-0.229,10.334,0.007,15.568c0.079,1.73,0.106,14.754,0.082,38.715c-0.074,0.462-0.1,0.874-0.082,1.286&#xD;&#xA;&#x9;&#x9;c0.035,0.747,0.059,2.497,0.074,5.192C0.062,75.787,0.028,90.268,0.014,96.546l-0.008,2.951c-0.011,5.132,4.019,7.257,6.317,7.712&#xD;&#xA;&#x9;&#x9;L24.396,115h1.409v0.336h16.801V127.8h20.531v-12.464h56.818V127.8h20.531v-12.464h20.919v-1.254l6.392-6.987&#xD;&#xA;&#x9;&#x9;c0.583-0.514,2.417-2.518,2.417-7.38l-0.002-1.078l9.951-5.225c1.528-0.415,4.057-2.075,4.049-5.896l-0.017-9.162l2.298,0&#xD;&#xA;&#x9;&#x9;c1.621,0,2.939-1.319,2.939-2.94V63.678l30.389,0.019l1.359-0.801c0.653-0.269,1.254-0.933,1.25-1.944&#xD;&#xA;&#x9;&#x9;C222.429,60.508,222.419,54.911,222.429,53.567z"/>
</svg>