<svg version="1.2" baseProfile="tiny" id="EdgeSVG_2Cp24" x="0px" y="0px" width="222.432px" height="127.8px" viewBox="0 0 222.432 127.8" xmlns:xlink="http://www.w3.org/1999/xlink" xmlns="http://www.w3.org/2000/svg">
  <linearGradient id="SVGID_2_" gradientUnits="userSpaceOnUse" x1="52.8706" y1="113.4614" x2="52.8706" y2="126.3003">
    <stop offset="0" style="stop-color:#000000;stop-opacity:0.6"/>
    <stop offset="1" style="stop-color:#000000;stop-opacity:0"/>
  </linearGradient>
  <rect x="44.105" y="113.461" fill="url(#SVGID_2_)" width="17.531" height="12.839"/>
  <linearGradient id="SVGID_3_" gradientUnits="userSpaceOnUse" x1="52.8706" y1="113.4614" x2="52.8706" y2="126.3003">
    <stop offset="0" style="stop-color:#000000;stop-opacity:0.6"/>
    <stop offset="1" style="stop-color:#000000;stop-opacity:0"/>
  </linearGradient>
  <rect x="44.105" y="113.461" fill="url(#SVGID_3_)" width="17.531" height="12.839"/>
  <linearGradient id="SVGID_4_" gradientUnits="userSpaceOnUse" x1="130.2207" y1="113.4614" x2="130.2207" y2="126.3003">
    <stop offset="0" style="stop-color:#000000;stop-opacity:0.6"/>
    <stop offset="1" style="stop-color:#000000;stop-opacity:0"/>
  </linearGradient>
  <rect x="121.455" y="113.461" fill="url(#SVGID_4_)" width="17.531" height="12.839"/>
  <linearGradient id="SVGID_5_" gradientUnits="userSpaceOnUse" x1="130.2207" y1="113.4614" x2="130.2207" y2="126.3003">
    <stop offset="0" style="stop-color:#000000;stop-opacity:0.6"/>
    <stop offset="1" style="stop-color:#000000;stop-opacity:0"/>
  </linearGradient>
  <rect x="121.455" y="113.461" fill="url(#SVGID_5_)" width="17.531" height="12.839"/>
  <linearGradient id="SVGID_6_" gradientUnits="userSpaceOnUse" x1="13.1025" y1="113.5" x2="13.1025" y2="1.5">
    <stop offset="0.0061" style="stop-color:#666666;stop-opacity:0"/>
    <stop offset="0.0786" style="stop-color:#414141;stop-opacity:0.0865"/>
    <stop offset="0.1512" style="stop-color:#232323;stop-opacity:0.173"/>
    <stop offset="0.2134" style="stop-color:#111111;stop-opacity:0.2472"/>
    <stop offset="0.2577" style="stop-color:#0A0A0A;stop-opacity:0.3"/>
    <stop offset="0.4601" style="stop-color:#7A7A7A;stop-opacity:0"/>
    <stop offset="0.5091" style="stop-color:#898989;stop-opacity:0.0958"/>
    <stop offset="0.6025" style="stop-color:#AFAFAF;stop-opacity:0.2785"/>
    <stop offset="0.7296" style="stop-color:#ECECEC;stop-opacity:0.527"/>
    <stop offset="0.7669" style="stop-color:#FFFFFF;stop-opacity:0.6"/>
    <stop offset="1" style="stop-color:#828282;stop-opacity:0.2"/>
  </linearGradient>
  <path fill="url(#SVGID_6_)" d="M1.506,15.5c-0.2-4.4,5.253-6.264,5.253-6.264L24.705,1.5v112l-17.946-7.735&#xD;&#xA;&#x9;&#x9;c0,0-5.266-0.866-5.253-6.265S1.706,19.9,1.506,15.5z"/>
  <rect x="25.405" y="1.5" fill="#58595B" width="1" height="112"/>
  <linearGradient id="SVGID_7_" gradientUnits="userSpaceOnUse" x1="93.6045" y1="113.5" x2="93.6045" y2="1.5">
    <stop offset="0.0061" style="stop-color:#666666;stop-opacity:0"/>
    <stop offset="0.0786" style="stop-color:#414141;stop-opacity:0.0865"/>
    <stop offset="0.1512" style="stop-color:#232323;stop-opacity:0.173"/>
    <stop offset="0.2134" style="stop-color:#111111;stop-opacity:0.2472"/>
    <stop offset="0.2577" style="stop-color:#0A0A0A;stop-opacity:0.3"/>
    <stop offset="0.4601" style="stop-color:#7A7A7A;stop-opacity:0"/>
    <stop offset="0.5091" style="stop-color:#898989;stop-opacity:0.0958"/>
    <stop offset="0.6025" style="stop-color:#AFAFAF;stop-opacity:0.2785"/>
    <stop offset="0.7296" style="stop-color:#ECECEC;stop-opacity:0.527"/>
    <stop offset="0.7669" style="stop-color:#FFFFFF;stop-opacity:0.6"/>
    <stop offset="1" style="stop-color:#828282;stop-opacity:0.3"/>
  </linearGradient>
  <rect x="27.304" y="1.5" fill="url(#SVGID_7_)" width="132.601" height="112"/>
  <linearGradient id="SVGID_8_" gradientUnits="userSpaceOnUse" x1="13.1025" y1="113.5" x2="13.1025" y2="41.5">
    <stop offset="0.0061" style="stop-color:#666666;stop-opacity:0"/>
    <stop offset="0.2289" style="stop-color:#414141;stop-opacity:0.0865"/>
    <stop offset="0.4518" style="stop-color:#232323;stop-opacity:0.173"/>
    <stop offset="0.643" style="stop-color:#111111;stop-opacity:0.2472"/>
    <stop offset="0.7791" style="stop-color:#0A0A0A;stop-opacity:0.3"/>
    <stop offset="0.8773" style="stop-color:#FFFFFF;stop-opacity:0"/>
  </linearGradient>
  <path fill="url(#SVGID_8_)" d="M1.506,55.5c-0.2-4.4,5.253-6.264,5.253-6.264L24.705,41.5v72l-17.946-7.735&#xD;&#xA;&#x9;&#x9;c0,0-5.266-0.866-5.253-6.265S1.706,59.9,1.506,55.5z"/>
  <linearGradient id="SVGID_9_" gradientUnits="userSpaceOnUse" x1="93.6045" y1="113.5" x2="93.6045" y2="41.5">
    <stop offset="0.0061" style="stop-color:#666666;stop-opacity:0"/>
    <stop offset="0.2289" style="stop-color:#414141;stop-opacity:0.0865"/>
    <stop offset="0.4518" style="stop-color:#232323;stop-opacity:0.173"/>
    <stop offset="0.643" style="stop-color:#111111;stop-opacity:0.2472"/>
    <stop offset="0.7791" style="stop-color:#0A0A0A;stop-opacity:0.3"/>
    <stop offset="0.8773" style="stop-color:#FFFFFF;stop-opacity:0"/>
  </linearGradient>
  <rect x="27.304" y="41.5" fill="url(#SVGID_9_)" width="132.601" height="72"/>
  <linearGradient id="SVGID_10_" gradientUnits="userSpaceOnUse" x1="159.0254" y1="113.5" x2="159.0254" y2="1.5">
    <stop offset="0" style="stop-color:#000000;stop-opacity:0.6"/>
    <stop offset="0.0422" style="stop-color:#000000;stop-opacity:0.5747"/>
    <stop offset="1" style="stop-color:#000000;stop-opacity:0"/>
  </linearGradient>
  <rect x="158.358" y="1.5" fill="url(#SVGID_10_)" width="1.333" height="112"/>
  <path fill="#FFFFFF" d="M1.98,101.225c-0.069,0-0.125-0.056-0.125-0.125V12.953c0-0.069,0.056-0.125,0.125-0.125&#xD;&#xA;&#x9;&#x9;s0.125,0.056,0.125,0.125V101.1C2.105,101.169,2.049,101.225,1.98,101.225z"/>
  <path fill="#FFFFFF" d="M168.536,101.401c-0.042,0-0.076-0.034-0.076-0.077V12.724c0-0.042,0.034-0.077,0.076-0.077&#xD;&#xA;&#x9;&#x9;s0.076,0.034,0.076,0.077v88.601C168.612,101.367,168.578,101.401,168.536,101.401z"/>
  <linearGradient id="SVGID_11_" gradientUnits="userSpaceOnUse" x1="2.9805" y1="93.5005" x2="181.8726" y2="93.5005">
    <stop offset="0" style="stop-color:#000000;stop-opacity:0.1"/>
    <stop offset="0.0896" style="stop-color:#000000;stop-opacity:0.1"/>
    <stop offset="1" style="stop-color:#000000;stop-opacity:0.1"/>
  </linearGradient>
  <path fill="url(#SVGID_11_)" d="M2.98,76.127v21.471c-0.012,5.119,5.198,5.941,5.198,5.941l17.56,7.253v0.081h132.623l6.701-7.099&#xD;&#xA;&#x9;&#x9;c0,0,3.474-2.396,3.474-6.995c0-0.37,0,0.999,0,0l9.08-4.473c0,0,4.263-1.583,4.257-5.241c-0.002-0.954,0-10.938,0-10.938H2.98z"/>
  <path fill="#FFFFFF" d="M182.433,88.745c-0.044,0-0.08-0.036-0.08-0.081V26.6c0-0.044,0.036-0.081,0.08-0.081&#xD;&#xA;&#x9;&#x9;s0.08,0.036,0.08,0.081v62.064C182.513,88.709,182.477,88.745,182.433,88.745z"/>
  <linearGradient id="SVGID_12_" gradientUnits="userSpaceOnUse" x1="96.2383" y1="113.5" x2="96.2383" y2="75.9624">
    <stop offset="0.2393" style="stop-color:#000000;stop-opacity:0.6"/>
    <stop offset="1" style="stop-color:#000000;stop-opacity:0"/>
  </linearGradient>
  <rect x="37.371" y="75.962" fill="url(#SVGID_12_)" width="117.734" height="37.538"/>
  <path fill="#D1D3D4" d="M220.931,53.322c0.016-0.4-0.398-0.57-0.398-0.57l-1.119-0.719v10.164l1.119-0.667&#xD;&#xA;&#x9;&#x9;c0,0,0.399-0.079,0.398-0.571C220.929,60.468,220.916,53.721,220.931,53.322z"/>
  <rect x="159.317" y="1.5" width="0.75" height="112"/>
  <linearGradient id="SVGID_13_" gradientUnits="userSpaceOnUse" x1="97.1055" y1="57.7998" x2="97.1055" y2="56.4102">
    <stop offset="0.4601" style="stop-color:#000000;stop-opacity:0.2"/>
    <stop offset="0.4689" style="stop-color:#000000;stop-opacity:0.1821"/>
    <stop offset="0.5583" style="stop-color:#000000;stop-opacity:0"/>
    <stop offset="1" style="stop-color:#000000;stop-opacity:0.2"/>
  </linearGradient>
  <polygon fill="url(#SVGID_13_)" points="39.105,56.623 39.105,57.587 39.105,57.8 155.105,57.8 155.105,57.587 155.105,56.623 &#xD;&#xA;&#x9;&#x9;155.105,56.41 39.105,56.41 &#x9;"/>
  <linearGradient id="SVGID_14_" gradientUnits="userSpaceOnUse" x1="97.1055" y1="63.7129" x2="97.1055" y2="62.1772">
    <stop offset="0.4601" style="stop-color:#000000;stop-opacity:0.2"/>
    <stop offset="0.4689" style="stop-color:#000000;stop-opacity:0.1821"/>
    <stop offset="0.5583" style="stop-color:#000000;stop-opacity:0"/>
    <stop offset="1" style="stop-color:#000000;stop-opacity:0.2"/>
  </linearGradient>
  <rect x="39.105" y="62.177" fill="url(#SVGID_14_)" width="116" height="1.536"/>
  <linearGradient id="SVGID_15_" gradientUnits="userSpaceOnUse" x1="97.1055" y1="69.8369" x2="97.1055" y2="67.9443">
    <stop offset="0.4601" style="stop-color:#000000;stop-opacity:0.2"/>
    <stop offset="0.4689" style="stop-color:#000000;stop-opacity:0.1821"/>
    <stop offset="0.5583" style="stop-color:#000000;stop-opacity:0"/>
    <stop offset="1" style="stop-color:#000000;stop-opacity:0.2"/>
  </linearGradient>
  <rect x="39.105" y="67.944" fill="url(#SVGID_15_)" width="116" height="1.893"/>
  <linearGradient id="SVGID_16_" gradientUnits="userSpaceOnUse" x1="97.1055" y1="75.9624" x2="97.1055" y2="73.7114">
    <stop offset="0.4601" style="stop-color:#000000;stop-opacity:0.2"/>
    <stop offset="0.4689" style="stop-color:#000000;stop-opacity:0.1821"/>
    <stop offset="0.5583" style="stop-color:#000000;stop-opacity:0"/>
    <stop offset="1" style="stop-color:#000000;stop-opacity:0.2"/>
  </linearGradient>
  <rect x="39.105" y="73.711" fill="url(#SVGID_16_)" width="116" height="2.251"/>
  <linearGradient id="SVGID_17_" gradientUnits="userSpaceOnUse" x1="97.1055" y1="82.0864" x2="97.1055" y2="79.4785">
    <stop offset="0.4601" style="stop-color:#000000;stop-opacity:0.2"/>
    <stop offset="0.4689" style="stop-color:#000000;stop-opacity:0.1821"/>
    <stop offset="0.5583" style="stop-color:#000000;stop-opacity:0"/>
    <stop offset="1" style="stop-color:#000000;stop-opacity:0.2"/>
  </linearGradient>
  <rect x="39.105" y="79.479" fill="url(#SVGID_17_)" width="116" height="2.608"/>
  <linearGradient id="SVGID_18_" gradientUnits="userSpaceOnUse" x1="97.1055" y1="88.2114" x2="97.1055" y2="85.2451">
    <stop offset="0.4601" style="stop-color:#000000;stop-opacity:0.2"/>
    <stop offset="0.4689" style="stop-color:#000000;stop-opacity:0.1821"/>
    <stop offset="0.5583" style="stop-color:#000000;stop-opacity:0"/>
    <stop offset="1" style="stop-color:#000000;stop-opacity:0.2"/>
  </linearGradient>
  <rect x="39.105" y="85.245" fill="url(#SVGID_18_)" width="116" height="2.966"/>
  <linearGradient id="SVGID_19_" gradientUnits="userSpaceOnUse" x1="97.1055" y1="94.3359" x2="97.1055" y2="91.0127">
    <stop offset="0.4601" style="stop-color:#000000;stop-opacity:0.2"/>
    <stop offset="0.4689" style="stop-color:#000000;stop-opacity:0.1821"/>
    <stop offset="0.5583" style="stop-color:#000000;stop-opacity:0"/>
    <stop offset="1" style="stop-color:#000000;stop-opacity:0.2"/>
  </linearGradient>
  <rect x="39.105" y="91.013" fill="url(#SVGID_19_)" width="116" height="3.323"/>
  <linearGradient id="SVGID_20_" gradientUnits="userSpaceOnUse" x1="97.1055" y1="100.4604" x2="97.1055" y2="96.7798">
    <stop offset="0.4601" style="stop-color:#000000;stop-opacity:0.2"/>
    <stop offset="0.4689" style="stop-color:#000000;stop-opacity:0.1821"/>
    <stop offset="0.5583" style="stop-color:#000000;stop-opacity:0"/>
    <stop offset="1" style="stop-color:#000000;stop-opacity:0.2"/>
  </linearGradient>
  <rect x="39.105" y="96.78" fill="url(#SVGID_20_)" width="116" height="3.681"/>
  <linearGradient id="SVGID_21_" gradientUnits="userSpaceOnUse" x1="97.1055" y1="106.5854" x2="97.1055" y2="102.5464">
    <stop offset="0.4601" style="stop-color:#000000;stop-opacity:0.2"/>
    <stop offset="0.4689" style="stop-color:#000000;stop-opacity:0.1821"/>
    <stop offset="0.5583" style="stop-color:#000000;stop-opacity:0"/>
    <stop offset="1" style="stop-color:#000000;stop-opacity:0.2"/>
  </linearGradient>
  <rect x="39.105" y="102.546" fill="url(#SVGID_21_)" width="116" height="4.039"/>
  <linearGradient id="SVGID_22_" gradientUnits="userSpaceOnUse" x1="97.1055" y1="112.71" x2="97.1055" y2="108.3145">
    <stop offset="0.4601" style="stop-color:#000000;stop-opacity:0.2"/>
    <stop offset="0.4689" style="stop-color:#000000;stop-opacity:0.1821"/>
    <stop offset="0.5583" style="stop-color:#000000;stop-opacity:0"/>
    <stop offset="1" style="stop-color:#000000;stop-opacity:0.2"/>
  </linearGradient>
  <rect x="39.105" y="108.314" fill="url(#SVGID_22_)" width="116" height="4.396"/>
  <linearGradient id="SVGID_23_" gradientUnits="userSpaceOnUse" x1="97.1055" y1="52.0327" x2="97.1055" y2="50.4971">
    <stop offset="0.4601" style="stop-color:#000000;stop-opacity:0.2"/>
    <stop offset="0.4689" style="stop-color:#000000;stop-opacity:0.1821"/>
    <stop offset="0.5583" style="stop-color:#000000;stop-opacity:0"/>
    <stop offset="1" style="stop-color:#000000;stop-opacity:0.2"/>
  </linearGradient>
  <rect x="39.105" y="50.497" fill="url(#SVGID_23_)" width="116" height="1.536"/>
  <linearGradient id="SVGID_24_" gradientUnits="userSpaceOnUse" x1="97.1055" y1="46.2656" x2="97.1055" y2="44.373">
    <stop offset="0.4601" style="stop-color:#000000;stop-opacity:0.2"/>
    <stop offset="0.4689" style="stop-color:#000000;stop-opacity:0.1821"/>
    <stop offset="0.5583" style="stop-color:#000000;stop-opacity:0"/>
    <stop offset="1" style="stop-color:#000000;stop-opacity:0.2"/>
  </linearGradient>
  <rect x="39.105" y="44.373" fill="url(#SVGID_24_)" width="116" height="1.893"/>
  <linearGradient id="SVGID_25_" gradientUnits="userSpaceOnUse" x1="97.1055" y1="40.4985" x2="97.1055" y2="38.2476">
    <stop offset="0.4601" style="stop-color:#000000;stop-opacity:0.2"/>
    <stop offset="0.4689" style="stop-color:#000000;stop-opacity:0.1821"/>
    <stop offset="0.5583" style="stop-color:#000000;stop-opacity:0"/>
    <stop offset="1" style="stop-color:#000000;stop-opacity:0.2"/>
  </linearGradient>
  <rect x="39.105" y="38.248" fill="url(#SVGID_25_)" width="116" height="2.251"/>
  <linearGradient id="SVGID_26_" gradientUnits="userSpaceOnUse" x1="97.1055" y1="34.7314" x2="97.1055" y2="32.1235">
    <stop offset="0.4601" style="stop-color:#000000;stop-opacity:0.2"/>
    <stop offset="0.4689" style="stop-color:#000000;stop-opacity:0.1821"/>
    <stop offset="0.5583" style="stop-color:#000000;stop-opacity:0"/>
    <stop offset="1" style="stop-color:#000000;stop-opacity:0.2"/>
  </linearGradient>
  <rect x="39.105" y="32.124" fill="url(#SVGID_26_)" width="116" height="2.608"/>
  <linearGradient id="SVGID_27_" gradientUnits="userSpaceOnUse" x1="97.1055" y1="28.9648" x2="97.1055" y2="25.9985">
    <stop offset="0.4601" style="stop-color:#000000;stop-opacity:0.2"/>
    <stop offset="0.4689" style="stop-color:#000000;stop-opacity:0.1821"/>
    <stop offset="0.5583" style="stop-color:#000000;stop-opacity:0"/>
    <stop offset="1" style="stop-color:#000000;stop-opacity:0.2"/>
  </linearGradient>
  <rect x="39.105" y="25.999" fill="url(#SVGID_27_)" width="116" height="2.966"/>
  <linearGradient id="SVGID_28_" gradientUnits="userSpaceOnUse" x1="97.1055" y1="23.1973" x2="97.1055" y2="19.8735">
    <stop offset="0.4601" style="stop-color:#000000;stop-opacity:0.2"/>
    <stop offset="0.4689" style="stop-color:#000000;stop-opacity:0.1821"/>
    <stop offset="0.5583" style="stop-color:#000000;stop-opacity:0"/>
    <stop offset="1" style="stop-color:#000000;stop-opacity:0.2"/>
  </linearGradient>
  <rect x="39.105" y="19.874" fill="url(#SVGID_28_)" width="116" height="3.324"/>
  <linearGradient id="SVGID_29_" gradientUnits="userSpaceOnUse" x1="97.1055" y1="17.4302" x2="97.1055" y2="13.7495">
    <stop offset="0.4601" style="stop-color:#000000;stop-opacity:0.2"/>
    <stop offset="0.4689" style="stop-color:#000000;stop-opacity:0.1821"/>
    <stop offset="0.5583" style="stop-color:#000000;stop-opacity:0"/>
    <stop offset="1" style="stop-color:#000000;stop-opacity:0.2"/>
  </linearGradient>
  <rect x="39.105" y="13.75" fill="url(#SVGID_29_)" width="116" height="3.681"/>
  <linearGradient id="SVGID_30_" gradientUnits="userSpaceOnUse" x1="97.1055" y1="11.6631" x2="97.1055" y2="7.6245">
    <stop offset="0.4601" style="stop-color:#000000;stop-opacity:0.2"/>
    <stop offset="0.4689" style="stop-color:#000000;stop-opacity:0.1821"/>
    <stop offset="0.5583" style="stop-color:#000000;stop-opacity:0"/>
    <stop offset="1" style="stop-color:#000000;stop-opacity:0.2"/>
  </linearGradient>
  <rect x="39.105" y="7.625" fill="url(#SVGID_30_)" width="116" height="4.039"/>
  <linearGradient id="SVGID_31_" gradientUnits="userSpaceOnUse" x1="97.1055" y1="5.8955" x2="97.1055" y2="1.5">
    <stop offset="0.4601" style="stop-color:#000000;stop-opacity:0.2"/>
    <stop offset="0.4689" style="stop-color:#000000;stop-opacity:0.1821"/>
    <stop offset="0.5583" style="stop-color:#000000;stop-opacity:0"/>
    <stop offset="1" style="stop-color:#000000;stop-opacity:0.2"/>
  </linearGradient>
  <rect x="39.105" y="1.5" fill="url(#SVGID_31_)" width="116" height="4.396"/>
  <linearGradient id="SVGID_32_" gradientUnits="userSpaceOnUse" x1="93.605" y1="113.8369" x2="93.605" y2="1.8369">
    <stop offset="0.0061" style="stop-color:#666666;stop-opacity:0"/>
    <stop offset="0.0786" style="stop-color:#414141;stop-opacity:0.0865"/>
    <stop offset="0.1512" style="stop-color:#232323;stop-opacity:0.173"/>
    <stop offset="0.2134" style="stop-color:#111111;stop-opacity:0.2472"/>
    <stop offset="0.2577" style="stop-color:#0A0A0A;stop-opacity:0.3"/>
    <stop offset="0.7669" style="stop-color:#FFFFFF;stop-opacity:0.3"/>
  </linearGradient>
  <path fill="url(#SVGID_32_)" d="M27.305,1.837v112h132.601v-112H27.305z M155.105,108.516h-116v-1.729h116V108.516z&#xD;&#xA;&#x9;&#x9; M155.105,102.516h-116v-1.729h116V102.516z M155.105,96.516h-116v-1.729h116V96.516z M155.105,91.293h-116v-2.45h116V91.293z&#xD;&#xA;&#x9;&#x9; M155.105,85.582h-116v-3.159h116V85.582z M155.105,79.815h-116v-3.392h116V79.815z M155.105,74.048h-116v-3.875h116V74.048z&#xD;&#xA;&#x9;&#x9; M155.105,68.281h-116v-4.107h116V68.281z M155.105,62.514h-116v-4.34h116V62.514z M155.106,56.767h-116v-4.34h116V56.767z&#xD;&#xA;&#x9;&#x9; M155.106,50.767h-116V46.66h116V50.767z M155.106,44.767h-116v-3.875h116V44.767z M155.106,38.518h-116v-3.392h116V38.518z&#xD;&#xA;&#x9;&#x9; M155.106,32.518h-116v-3.159h116V32.518z M155.106,26.098h-116v-2.45h116V26.098z M155.106,20.154h-116v-1.729h116V20.154z&#xD;&#xA;&#x9;&#x9; M155.106,14.154h-116v-1.729h116V14.154z M155.106,8.154h-116V6.425h116V8.154z"/>
  <rect x="39.105" y="19.624" fill="#FFFFFF" width="116" height="0.5"/>
  <rect x="39.105" y="25.624" fill="#FFFFFF" width="116" height="0.5"/>
  <rect x="39.105" y="32.624" fill="#FFFFFF" width="116" height="0.5"/>
  <rect x="39.105" y="38.624" fill="#FFFFFF" width="116" height="0.5"/>
  <rect x="39.105" y="44.624" fill="#FFFFFF" width="116" height="0.5"/>
  <rect x="39.105" y="50.624" fill="#FFFFFF" width="116" height="0.5"/>
  <rect x="39.105" y="56.749" fill="#FFFFFF" width="116" height="0.25"/>
  <rect x="39.105" y="62.749" fill="#FFFFFF" width="116" height="0.25"/>
  <rect x="39.105" y="67.749" fill="#FFFFFF" width="116" height="0.25"/>
  <rect x="39.105" y="73.749" fill="#FFFFFF" width="116" height="0.25"/>
  <rect x="39.105" y="79.749" fill="#FFFFFF" width="116" height="0.25"/>
  <rect x="39.105" y="85.749" fill="#FFFFFF" width="116" height="0.25"/>
  <rect x="39.105" y="92.749" fill="#FFFFFF" width="116" height="0.25"/>
  <rect x="39.105" y="98.749" fill="#FFFFFF" width="116" height="0.25"/>
  <rect x="39.105" y="104.749" fill="#FFFFFF" width="116" height="0.25"/>
  <rect x="39.105" y="110.749" fill="#FFFFFF" width="116" height="0.25"/>
  <linearGradient id="SVGID_33_" gradientUnits="userSpaceOnUse" x1="37.3711" y1="57.5" x2="38.8389" y2="57.5">
    <stop offset="0" style="stop-color:#000000"/>
    <stop offset="0.0093" style="stop-color:#000000;stop-opacity:0.9641"/>
    <stop offset="0.1043" style="stop-color:#000000;stop-opacity:0.6"/>
    <stop offset="0.6196" style="stop-color:#000000"/>
  </linearGradient>
  <rect x="37.371" y="1.5" fill="url(#SVGID_33_)" width="1.468" height="112"/>
  <linearGradient id="SVGID_34_" gradientUnits="userSpaceOnUse" x1="155.3711" y1="57.5" x2="156.8389" y2="57.5">
    <stop offset="0" style="stop-color:#000000"/>
    <stop offset="0.0396" style="stop-color:#000000;stop-opacity:0.9641"/>
    <stop offset="0.4417" style="stop-color:#000000;stop-opacity:0.6"/>
    <stop offset="0.9939" style="stop-color:#000000"/>
  </linearGradient>
  <rect x="155.371" y="1.5" fill="url(#SVGID_34_)" width="1.468" height="112"/>
  <linearGradient id="SVGID_35_" gradientUnits="userSpaceOnUse" x1="182.9976" y1="57.105" x2="184.2515" y2="57.105">
    <stop offset="0" style="stop-color:#000000"/>
    <stop offset="0.0396" style="stop-color:#000000;stop-opacity:0.9641"/>
    <stop offset="0.4417" style="stop-color:#000000;stop-opacity:0.6"/>
    <stop offset="0.9939" style="stop-color:#000000;stop-opacity:0"/>
  </linearGradient>
  <polygon fill="url(#SVGID_35_)" points="182.998,76.548 184.251,76.855 184.251,37.355 182.998,37.662 &#x9;"/>
  <linearGradient id="SVGID_36_" gradientUnits="userSpaceOnUse" x1="187.9976" y1="57.0972" x2="189.2515" y2="57.0972">
    <stop offset="0" style="stop-color:#000000"/>
    <stop offset="0.0396" style="stop-color:#000000;stop-opacity:0.9641"/>
    <stop offset="0.4417" style="stop-color:#000000;stop-opacity:0.6"/>
    <stop offset="0.9939" style="stop-color:#000000;stop-opacity:0"/>
  </linearGradient>
  <polygon fill="url(#SVGID_36_)" points="187.998,62.205 189.251,62.285 189.251,51.909 187.998,51.99 &#x9;"/>
  <linearGradient id="SVGID_37_" gradientUnits="userSpaceOnUse" x1="168.6362" y1="57.5" x2="170.105" y2="57.5">
    <stop offset="0" style="stop-color:#000000"/>
    <stop offset="0.0396" style="stop-color:#000000;stop-opacity:0.9641"/>
    <stop offset="0.4417" style="stop-color:#000000;stop-opacity:0.6"/>
    <stop offset="0.9939" style="stop-color:#000000;stop-opacity:0"/>
  </linearGradient>
  <polygon fill="url(#SVGID_37_)" points="168.636,97.527 170.105,96.78 170.105,18.197 168.636,17.473 &#x9;"/>
  <linearGradient id="SVGID_38_" gradientUnits="userSpaceOnUse" x1="203.6187" y1="62.1772" x2="203.6187" y2="52.0332">
    <stop offset="0.0061" style="stop-color:#666666;stop-opacity:0"/>
    <stop offset="0.0786" style="stop-color:#414141;stop-opacity:0.0865"/>
    <stop offset="0.1512" style="stop-color:#232323;stop-opacity:0.173"/>
    <stop offset="0.2134" style="stop-color:#111111;stop-opacity:0.2472"/>
    <stop offset="0.2577" style="stop-color:#0A0A0A;stop-opacity:0.3"/>
    <stop offset="0.4601" style="stop-color:#7A7A7A;stop-opacity:0"/>
    <stop offset="0.5091" style="stop-color:#898989;stop-opacity:0.0958"/>
    <stop offset="0.6025" style="stop-color:#AFAFAF;stop-opacity:0.2785"/>
    <stop offset="0.7296" style="stop-color:#ECECEC;stop-opacity:0.527"/>
    <stop offset="0.7669" style="stop-color:#FFFFFF;stop-opacity:0.6"/>
    <stop offset="1" style="stop-color:#828282;stop-opacity:0.2"/>
  </linearGradient>
  <rect x="187.933" y="52.033" fill="url(#SVGID_38_)" width="31.371" height="10.144"/>
  <rect x="219.179" y="52.033" width="0.25" height="10.144"/>
  <linearGradient id="SVGID_39_" gradientUnits="userSpaceOnUse" x1="33.3145" y1="11.5972" x2="33.3145" y2="9.1279">
    <stop offset="0" style="stop-color:#000000;stop-opacity:0"/>
    <stop offset="0.1232" style="stop-color:#000000;stop-opacity:0.0739"/>
    <stop offset="1" style="stop-color:#000000;stop-opacity:0.6"/>
  </linearGradient>
  <polygon fill="url(#SVGID_39_)" points="34.52,10.563 32.159,10.563 30.974,9.128 30.924,9.128 31.935,11.597 34.692,11.597 &#xD;&#xA;&#x9;&#x9;35.705,9.128 &#x9;"/>
  <linearGradient id="SVGID_40_" gradientUnits="userSpaceOnUse" x1="33.3008" y1="60.3774" x2="33.3008" y2="56.8164">
    <stop offset="0" style="stop-color:#000000;stop-opacity:0"/>
    <stop offset="0.1232" style="stop-color:#000000;stop-opacity:0.0739"/>
    <stop offset="1" style="stop-color:#000000;stop-opacity:0.6"/>
  </linearGradient>
  <polygon fill="url(#SVGID_40_)" points="34.547,58.886 32.186,58.886 31.001,56.816 30.924,56.816 31.935,60.377 34.692,60.377 &#xD;&#xA;&#x9;&#x9;35.678,56.911 &#x9;"/>
  <linearGradient id="SVGID_41_" gradientUnits="userSpaceOnUse" x1="33.3677" y1="59.0596" x2="33.3677" y2="54.5708">
    <stop offset="0" style="stop-color:#000000;stop-opacity:0.5"/>
    <stop offset="0.2881" style="stop-color:#090909;stop-opacity:0.356"/>
    <stop offset="0.4257" style="stop-color:#212122;stop-opacity:0.2872"/>
    <stop offset="0.5314" style="stop-color:#3D3C3E;stop-opacity:0.2343"/>
    <stop offset="0.6208" style="stop-color:#4F5052;stop-opacity:0.1896"/>
    <stop offset="0.7001" style="stop-color:#646567;stop-opacity:0.15"/>
    <stop offset="0.772" style="stop-color:#7B7D7F;stop-opacity:0.114"/>
    <stop offset="0.8384" style="stop-color:#95979A;stop-opacity:0.0808"/>
    <stop offset="0.9006" style="stop-color:#B6B8BA;stop-opacity:0.0497"/>
    <stop offset="0.9571" style="stop-color:#DBDCDD;stop-opacity:0.0215"/>
    <stop offset="1" style="stop-color:#FFFFFF;stop-opacity:0"/>
  </linearGradient>
  <path fill="url(#SVGID_41_)" d="M34.65,54.571h-2.563l-1.282,2.246l1.282,2.243h2.563l1.281-2.243L34.65,54.571z M34.549,58.886&#xD;&#xA;&#x9;&#x9;h-2.363l-1.182-2.07l1.182-2.071h2.363l1.181,2.071L34.549,58.886z"/>
  <linearGradient id="SVGID_42_" gradientUnits="userSpaceOnUse" x1="33.3394" y1="58.8862" x2="33.3394" y2="54.7456">
    <stop offset="0.0061" style="stop-color:#666666;stop-opacity:0"/>
    <stop offset="0.1122" style="stop-color:#414141;stop-opacity:0.0288"/>
    <stop offset="0.2184" style="stop-color:#232323;stop-opacity:0.0577"/>
    <stop offset="0.3094" style="stop-color:#111111;stop-opacity:0.0824"/>
    <stop offset="0.3742" style="stop-color:#0A0A0A;stop-opacity:0.1"/>
    <stop offset="0.8773" style="stop-color:#FFFFFF;stop-opacity:0.5"/>
  </linearGradient>
  <path fill="url(#SVGID_42_)" d="M34.52,54.746h-2.361l-1.185,2.071l1.185,2.07h2.361l1.185-2.07L34.52,54.746z"/>
  <linearGradient id="SVGID_43_" gradientUnits="userSpaceOnUse" x1="33.3008" y1="107.3774" x2="33.3008" y2="105.0854">
    <stop offset="0" style="stop-color:#000000;stop-opacity:0"/>
    <stop offset="0.1232" style="stop-color:#000000;stop-opacity:0.0739"/>
    <stop offset="1" style="stop-color:#000000;stop-opacity:0.6"/>
  </linearGradient>
  <polygon fill="url(#SVGID_43_)" points="34.547,106.417 32.186,106.417 31.001,105.085 30.924,105.085 31.935,107.377 &#xD;&#xA;&#x9;&#x9;34.692,107.377 35.678,105.146 &#x9;"/>
  <linearGradient id="SVGID_44_" gradientUnits="userSpaceOnUse" x1="33.3677" y1="106.5293" x2="33.3677" y2="103.6401">
    <stop offset="0" style="stop-color:#000000;stop-opacity:0.5"/>
    <stop offset="0.2881" style="stop-color:#090909;stop-opacity:0.356"/>
    <stop offset="0.4257" style="stop-color:#212122;stop-opacity:0.2872"/>
    <stop offset="0.5314" style="stop-color:#3D3C3E;stop-opacity:0.2343"/>
    <stop offset="0.6208" style="stop-color:#4F5052;stop-opacity:0.1896"/>
    <stop offset="0.7001" style="stop-color:#646567;stop-opacity:0.15"/>
    <stop offset="0.772" style="stop-color:#7B7D7F;stop-opacity:0.114"/>
    <stop offset="0.8384" style="stop-color:#95979A;stop-opacity:0.0808"/>
    <stop offset="0.9006" style="stop-color:#B6B8BA;stop-opacity:0.0497"/>
    <stop offset="0.9571" style="stop-color:#DBDCDD;stop-opacity:0.0215"/>
    <stop offset="1" style="stop-color:#FFFFFF;stop-opacity:0"/>
  </linearGradient>
  <path fill="url(#SVGID_44_)" d="M34.65,103.64h-2.563l-1.282,1.445l1.282,1.444h2.563l1.281-1.444L34.65,103.64z M34.549,106.417&#xD;&#xA;&#x9;&#x9;h-2.363l-1.182-1.332l1.182-1.333h2.363l1.181,1.333L34.549,106.417z"/>
  <linearGradient id="SVGID_45_" gradientUnits="userSpaceOnUse" x1="33.3394" y1="106.4175" x2="33.3394" y2="103.7529">
    <stop offset="0.0061" style="stop-color:#666666;stop-opacity:0"/>
    <stop offset="0.1122" style="stop-color:#414141;stop-opacity:0.0288"/>
    <stop offset="0.2184" style="stop-color:#232323;stop-opacity:0.0577"/>
    <stop offset="0.3094" style="stop-color:#111111;stop-opacity:0.0824"/>
    <stop offset="0.3742" style="stop-color:#0A0A0A;stop-opacity:0.1"/>
    <stop offset="0.8773" style="stop-color:#FFFFFF;stop-opacity:0.5"/>
  </linearGradient>
  <path fill="url(#SVGID_45_)" d="M34.52,103.753h-2.361l-1.185,1.333l1.185,1.332h2.361l1.185-1.332L34.52,103.753z"/>
  <linearGradient id="SVGID_46_" gradientUnits="userSpaceOnUse" x1="33.3677" y1="10.6831" x2="33.3677" y2="7.5708">
    <stop offset="0" style="stop-color:#000000;stop-opacity:0.5"/>
    <stop offset="0.2881" style="stop-color:#090909;stop-opacity:0.356"/>
    <stop offset="0.4257" style="stop-color:#212122;stop-opacity:0.2872"/>
    <stop offset="0.5314" style="stop-color:#3D3C3E;stop-opacity:0.2343"/>
    <stop offset="0.6208" style="stop-color:#4F5052;stop-opacity:0.1896"/>
    <stop offset="0.7001" style="stop-color:#646567;stop-opacity:0.15"/>
    <stop offset="0.772" style="stop-color:#7B7D7F;stop-opacity:0.114"/>
    <stop offset="0.8384" style="stop-color:#95979A;stop-opacity:0.0808"/>
    <stop offset="0.9006" style="stop-color:#B6B8BA;stop-opacity:0.0497"/>
    <stop offset="0.9571" style="stop-color:#DBDCDD;stop-opacity:0.0215"/>
    <stop offset="1" style="stop-color:#FFFFFF;stop-opacity:0"/>
  </linearGradient>
  <path fill="url(#SVGID_46_)" d="M34.65,7.571h-2.563l-1.282,1.557l1.282,1.555h2.563l1.281-1.555L34.65,7.571z M34.549,10.563&#xD;&#xA;&#x9;&#x9;h-2.363l-1.182-1.435l1.182-1.436h2.363l1.181,1.436L34.549,10.563z"/>
  <linearGradient id="SVGID_47_" gradientUnits="userSpaceOnUse" x1="33.3394" y1="10.563" x2="33.3394" y2="7.6919">
    <stop offset="0.0061" style="stop-color:#666666;stop-opacity:0"/>
    <stop offset="0.1122" style="stop-color:#414141;stop-opacity:0.0288"/>
    <stop offset="0.2184" style="stop-color:#232323;stop-opacity:0.0577"/>
    <stop offset="0.3094" style="stop-color:#111111;stop-opacity:0.0824"/>
    <stop offset="0.3742" style="stop-color:#0A0A0A;stop-opacity:0.1"/>
    <stop offset="0.8773" style="stop-color:#FFFFFF;stop-opacity:0.5"/>
  </linearGradient>
  <path fill="url(#SVGID_47_)" d="M34.52,7.692h-2.361l-1.185,1.436l1.185,1.435h2.361l1.185-1.435L34.52,7.692z"/>
  <linearGradient id="SVGID_48_" gradientUnits="userSpaceOnUse" x1="97.105" y1="5.8955" x2="97.105" y2="7.6245">
    <stop offset="0" style="stop-color:#000000;stop-opacity:0.2"/>
    <stop offset="1" style="stop-color:#000000;stop-opacity:0.5"/>
  </linearGradient>
  <rect x="39.105" y="5.896" fill="url(#SVGID_48_)" width="116" height="1.729"/>
  <linearGradient id="SVGID_49_" gradientUnits="userSpaceOnUse" x1="97.105" y1="11.8955" x2="97.105" y2="13.6245">
    <stop offset="0" style="stop-color:#000000;stop-opacity:0.2"/>
    <stop offset="1" style="stop-color:#000000;stop-opacity:0.5"/>
  </linearGradient>
  <rect x="39.105" y="11.896" fill="url(#SVGID_49_)" width="116" height="1.729"/>
  <linearGradient id="SVGID_50_" gradientUnits="userSpaceOnUse" x1="97.105" y1="17.8955" x2="97.105" y2="19.6245">
    <stop offset="0" style="stop-color:#000000;stop-opacity:0.2"/>
    <stop offset="1" style="stop-color:#000000;stop-opacity:0.5"/>
  </linearGradient>
  <rect x="39.105" y="17.896" fill="url(#SVGID_50_)" width="116" height="1.729"/>
  <linearGradient id="SVGID_51_" gradientUnits="userSpaceOnUse" x1="97.105" y1="23.1328" x2="97.105" y2="25.3223">
    <stop offset="0" style="stop-color:#000000;stop-opacity:0.2"/>
    <stop offset="1" style="stop-color:#000000;stop-opacity:0.5"/>
  </linearGradient>
  <rect x="39.105" y="23.133" fill="url(#SVGID_51_)" width="116" height="2.189"/>
  <linearGradient id="SVGID_52_" gradientUnits="userSpaceOnUse" x1="97.105" y1="29.2734" x2="97.105" y2="32.0708">
    <stop offset="0" style="stop-color:#000000;stop-opacity:0.2"/>
    <stop offset="1" style="stop-color:#000000;stop-opacity:0.5"/>
  </linearGradient>
  <rect x="39.105" y="29.273" fill="url(#SVGID_52_)" width="116" height="2.797"/>
  <linearGradient id="SVGID_53_" gradientUnits="userSpaceOnUse" x1="97.105" y1="35.2734" x2="97.105" y2="38.0708">
    <stop offset="0" style="stop-color:#000000;stop-opacity:0.2"/>
    <stop offset="1" style="stop-color:#000000;stop-opacity:0.5"/>
  </linearGradient>
  <rect x="39.105" y="35.273" fill="url(#SVGID_53_)" width="116" height="2.797"/>
  <linearGradient id="SVGID_54_" gradientUnits="userSpaceOnUse" x1="97.105" y1="41.5464" x2="97.105" y2="44.9424">
    <stop offset="0" style="stop-color:#000000;stop-opacity:0.2"/>
    <stop offset="1" style="stop-color:#000000;stop-opacity:0.5"/>
  </linearGradient>
  <rect x="39.105" y="41.546" fill="url(#SVGID_54_)" width="116" height="3.396"/>
  <linearGradient id="SVGID_55_" gradientUnits="userSpaceOnUse" x1="97.105" y1="46.5464" x2="97.105" y2="49.9424">
    <stop offset="0" style="stop-color:#000000;stop-opacity:0.2"/>
    <stop offset="1" style="stop-color:#000000;stop-opacity:0.5"/>
  </linearGradient>
  <rect x="39.105" y="46.546" fill="url(#SVGID_55_)" width="116" height="3.396"/>
  <linearGradient id="SVGID_56_" gradientUnits="userSpaceOnUse" x1="97.105" y1="52.5464" x2="97.105" y2="55.9424">
    <stop offset="0" style="stop-color:#000000;stop-opacity:0.2"/>
    <stop offset="1" style="stop-color:#000000;stop-opacity:0.5"/>
  </linearGradient>
  <rect x="39.105" y="52.546" fill="url(#SVGID_56_)" width="116" height="3.396"/>
  <linearGradient id="SVGID_57_" gradientUnits="userSpaceOnUse" x1="97.105" y1="57.7012" x2="97.105" y2="61.8735">
    <stop offset="0" style="stop-color:#000000;stop-opacity:0.2"/>
    <stop offset="1" style="stop-color:#000000;stop-opacity:0.5"/>
  </linearGradient>
  <rect x="39.105" y="57.701" fill="url(#SVGID_57_)" width="116" height="4.172"/>
  <linearGradient id="SVGID_58_" gradientUnits="userSpaceOnUse" x1="97.105" y1="63.7012" x2="97.105" y2="67.8735">
    <stop offset="0" style="stop-color:#000000;stop-opacity:0.2"/>
    <stop offset="1" style="stop-color:#000000;stop-opacity:0.5"/>
  </linearGradient>
  <rect x="39.105" y="63.701" fill="url(#SVGID_58_)" width="116" height="4.172"/>
  <linearGradient id="SVGID_59_" gradientUnits="userSpaceOnUse" x1="97.105" y1="69.7012" x2="97.105" y2="73.8735">
    <stop offset="0" style="stop-color:#000000;stop-opacity:0.2"/>
    <stop offset="1" style="stop-color:#000000;stop-opacity:0.5"/>
  </linearGradient>
  <rect x="39.105" y="69.701" fill="url(#SVGID_59_)" width="116" height="4.172"/>
  <linearGradient id="SVGID_60_" gradientUnits="userSpaceOnUse" x1="97.105" y1="75.7012" x2="97.105" y2="79.8735">
    <stop offset="0" style="stop-color:#000000;stop-opacity:0.2"/>
    <stop offset="1" style="stop-color:#000000;stop-opacity:0.5"/>
  </linearGradient>
  <rect x="39.105" y="75.701" fill="url(#SVGID_60_)" width="116" height="4.172"/>
  <linearGradient id="SVGID_61_" gradientUnits="userSpaceOnUse" x1="97.105" y1="81.7012" x2="97.105" y2="85.2451">
    <stop offset="0" style="stop-color:#000000;stop-opacity:0.2"/>
    <stop offset="1" style="stop-color:#000000;stop-opacity:0.5"/>
  </linearGradient>
  <rect x="39.105" y="81.701" fill="url(#SVGID_61_)" width="116" height="3.544"/>
  <linearGradient id="SVGID_62_" gradientUnits="userSpaceOnUse" x1="97.105" y1="88.7012" x2="97.105" y2="92.2451">
    <stop offset="0" style="stop-color:#000000;stop-opacity:0.2"/>
    <stop offset="1" style="stop-color:#000000;stop-opacity:0.5"/>
  </linearGradient>
  <rect x="39.105" y="88.701" fill="url(#SVGID_62_)" width="116" height="3.544"/>
  <linearGradient id="SVGID_63_" gradientUnits="userSpaceOnUse" x1="97.105" y1="94.5645" x2="97.105" y2="95.9814">
    <stop offset="0" style="stop-color:#000000;stop-opacity:0.2"/>
    <stop offset="1" style="stop-color:#000000;stop-opacity:0.5"/>
  </linearGradient>
  <rect x="39.105" y="94.564" fill="url(#SVGID_63_)" width="116" height="1.417"/>
  <linearGradient id="SVGID_64_" gradientUnits="userSpaceOnUse" x1="97.105" y1="100.5645" x2="97.105" y2="101.9814">
    <stop offset="0" style="stop-color:#000000;stop-opacity:0.2"/>
    <stop offset="1" style="stop-color:#000000;stop-opacity:0.5"/>
  </linearGradient>
  <rect x="39.105" y="100.564" fill="url(#SVGID_64_)" width="116" height="1.417"/>
  <linearGradient id="SVGID_65_" gradientUnits="userSpaceOnUse" x1="97.105" y1="106.5645" x2="97.105" y2="107.9814">
    <stop offset="0" style="stop-color:#000000;stop-opacity:0.2"/>
    <stop offset="1" style="stop-color:#000000;stop-opacity:0.5"/>
  </linearGradient>
  <rect x="39.105" y="106.564" fill="url(#SVGID_65_)" width="116" height="1.417"/>
  <linearGradient id="SVGID_66_" gradientUnits="userSpaceOnUse" x1="97.105" y1="5.8955" x2="97.105" y2="7.6245">
    <stop offset="0" style="stop-color:#000000;stop-opacity:0.2"/>
    <stop offset="1" style="stop-color:#000000;stop-opacity:0.5"/>
  </linearGradient>
  <rect x="39.105" y="5.896" fill="url(#SVGID_66_)" width="116" height="1.729"/>
  <linearGradient id="SVGID_67_" gradientUnits="userSpaceOnUse" x1="97.105" y1="11.8955" x2="97.105" y2="13.6245">
    <stop offset="0" style="stop-color:#000000;stop-opacity:0.2"/>
    <stop offset="1" style="stop-color:#000000;stop-opacity:0.5"/>
  </linearGradient>
  <rect x="39.105" y="11.896" fill="url(#SVGID_67_)" width="116" height="1.729"/>
  <linearGradient id="SVGID_68_" gradientUnits="userSpaceOnUse" x1="97.105" y1="17.8955" x2="97.105" y2="19.6245">
    <stop offset="0" style="stop-color:#000000;stop-opacity:0.2"/>
    <stop offset="1" style="stop-color:#000000;stop-opacity:0.5"/>
  </linearGradient>
  <rect x="39.105" y="17.896" fill="url(#SVGID_68_)" width="116" height="1.729"/>
  <linearGradient id="SVGID_69_" gradientUnits="userSpaceOnUse" x1="97.105" y1="23.1328" x2="97.105" y2="25.3223">
    <stop offset="0" style="stop-color:#000000;stop-opacity:0.2"/>
    <stop offset="1" style="stop-color:#000000;stop-opacity:0.5"/>
  </linearGradient>
  <rect x="39.105" y="23.133" fill="url(#SVGID_69_)" width="116" height="2.189"/>
  <linearGradient id="SVGID_70_" gradientUnits="userSpaceOnUse" x1="97.105" y1="29.2734" x2="97.105" y2="32.0708">
    <stop offset="0" style="stop-color:#000000;stop-opacity:0.2"/>
    <stop offset="1" style="stop-color:#000000;stop-opacity:0.5"/>
  </linearGradient>
  <rect x="39.105" y="29.273" fill="url(#SVGID_70_)" width="116" height="2.797"/>
  <linearGradient id="SVGID_71_" gradientUnits="userSpaceOnUse" x1="97.105" y1="35.2734" x2="97.105" y2="38.0708">
    <stop offset="0" style="stop-color:#000000;stop-opacity:0.2"/>
    <stop offset="1" style="stop-color:#000000;stop-opacity:0.5"/>
  </linearGradient>
  <rect x="39.105" y="35.273" fill="url(#SVGID_71_)" width="116" height="2.797"/>
  <linearGradient id="SVGID_72_" gradientUnits="userSpaceOnUse" x1="97.105" y1="41.5464" x2="97.105" y2="44.9424">
    <stop offset="0" style="stop-color:#000000;stop-opacity:0.2"/>
    <stop offset="1" style="stop-color:#000000;stop-opacity:0.5"/>
  </linearGradient>
  <rect x="39.105" y="41.546" fill="url(#SVGID_72_)" width="116" height="3.396"/>
  <linearGradient id="SVGID_73_" gradientUnits="userSpaceOnUse" x1="97.105" y1="46.5464" x2="97.105" y2="49.9424">
    <stop offset="0" style="stop-color:#000000;stop-opacity:0.2"/>
    <stop offset="1" style="stop-color:#000000;stop-opacity:0.5"/>
  </linearGradient>
  <rect x="39.105" y="46.546" fill="url(#SVGID_73_)" width="116" height="3.396"/>
  <linearGradient id="SVGID_74_" gradientUnits="userSpaceOnUse" x1="97.105" y1="52.5464" x2="97.105" y2="55.9424">
    <stop offset="0" style="stop-color:#000000;stop-opacity:0.2"/>
    <stop offset="1" style="stop-color:#000000;stop-opacity:0.5"/>
  </linearGradient>
  <rect x="39.105" y="52.546" fill="url(#SVGID_74_)" width="116" height="3.396"/>
  <linearGradient id="SVGID_75_" gradientUnits="userSpaceOnUse" x1="97.105" y1="57.7012" x2="97.105" y2="61.8735">
    <stop offset="0" style="stop-color:#000000;stop-opacity:0.2"/>
    <stop offset="1" style="stop-color:#000000;stop-opacity:0.5"/>
  </linearGradient>
  <rect x="39.105" y="57.701" fill="url(#SVGID_75_)" width="116" height="4.172"/>
  <linearGradient id="SVGID_76_" gradientUnits="userSpaceOnUse" x1="97.105" y1="63.7012" x2="97.105" y2="67.8735">
    <stop offset="0" style="stop-color:#000000;stop-opacity:0.2"/>
    <stop offset="1" style="stop-color:#000000;stop-opacity:0.5"/>
  </linearGradient>
  <rect x="39.105" y="63.701" fill="url(#SVGID_76_)" width="116" height="4.172"/>
  <linearGradient id="SVGID_77_" gradientUnits="userSpaceOnUse" x1="97.105" y1="69.7012" x2="97.105" y2="73.8735">
    <stop offset="0" style="stop-color:#000000;stop-opacity:0.2"/>
    <stop offset="1" style="stop-color:#000000;stop-opacity:0.5"/>
  </linearGradient>
  <rect x="39.105" y="69.701" fill="url(#SVGID_77_)" width="116" height="4.172"/>
  <linearGradient id="SVGID_78_" gradientUnits="userSpaceOnUse" x1="97.105" y1="75.7012" x2="97.105" y2="79.8735">
    <stop offset="0" style="stop-color:#000000;stop-opacity:0.2"/>
    <stop offset="1" style="stop-color:#000000;stop-opacity:0.5"/>
  </linearGradient>
  <rect x="39.105" y="75.701" fill="url(#SVGID_78_)" width="116" height="4.172"/>
  <linearGradient id="SVGID_79_" gradientUnits="userSpaceOnUse" x1="97.105" y1="81.7012" x2="97.105" y2="85.2451">
    <stop offset="0" style="stop-color:#000000;stop-opacity:0.2"/>
    <stop offset="1" style="stop-color:#000000;stop-opacity:0.5"/>
  </linearGradient>
  <rect x="39.105" y="81.701" fill="url(#SVGID_79_)" width="116" height="3.544"/>
  <linearGradient id="SVGID_80_" gradientUnits="userSpaceOnUse" x1="97.105" y1="88.7012" x2="97.105" y2="92.2451">
    <stop offset="0" style="stop-color:#000000;stop-opacity:0.2"/>
    <stop offset="1" style="stop-color:#000000;stop-opacity:0.3"/>
  </linearGradient>
  <rect x="39.105" y="88.701" fill="url(#SVGID_80_)" width="116" height="3.544"/>
  <linearGradient id="SVGID_81_" gradientUnits="userSpaceOnUse" x1="97.105" y1="94.5645" x2="97.105" y2="95.9814">
    <stop offset="0" style="stop-color:#000000;stop-opacity:0.2"/>
    <stop offset="1" style="stop-color:#000000;stop-opacity:0.5"/>
  </linearGradient>
  <rect x="39.105" y="94.564" fill="url(#SVGID_81_)" width="116" height="1.417"/>
  <linearGradient id="SVGID_82_" gradientUnits="userSpaceOnUse" x1="97.105" y1="100.5645" x2="97.105" y2="101.9814">
    <stop offset="0" style="stop-color:#000000;stop-opacity:0.2"/>
    <stop offset="1" style="stop-color:#000000;stop-opacity:0.5"/>
  </linearGradient>
  <rect x="39.105" y="100.564" fill="url(#SVGID_82_)" width="116" height="1.417"/>
  <linearGradient id="SVGID_83_" gradientUnits="userSpaceOnUse" x1="97.105" y1="106.5645" x2="97.105" y2="107.9814">
    <stop offset="0" style="stop-color:#000000;stop-opacity:0.2"/>
    <stop offset="1" style="stop-color:#000000;stop-opacity:0.5"/>
  </linearGradient>
  <rect x="39.105" y="106.564" fill="url(#SVGID_83_)" width="116" height="1.417"/>
  <linearGradient id="SVGID_84_" gradientUnits="userSpaceOnUse" x1="53.1211" y1="125.6001" x2="53.1211" y2="123.3003">
    <stop offset="0" style="stop-color:#010101;stop-opacity:0"/>
    <stop offset="0.9693" style="stop-color:#010101;stop-opacity:0.3"/>
  </linearGradient>
  <rect x="44.605" y="123.3" fill="url(#SVGID_84_)" width="17.031" height="2.3"/>
  <linearGradient id="SVGID_85_" gradientUnits="userSpaceOnUse" x1="130.1211" y1="125.6001" x2="130.1211" y2="123.3003">
    <stop offset="0" style="stop-color:#010101;stop-opacity:0"/>
    <stop offset="0.9693" style="stop-color:#010101;stop-opacity:0.3"/>
  </linearGradient>
  <rect x="121.605" y="123.3" fill="url(#SVGID_85_)" width="17.031" height="2.3"/>
  <rect x="121.455" y="122.968" fill="#D1D3D4" width="17.531" height="0.247"/>
  <rect x="44.105" y="122.988" fill="#D1D3D4" width="17.531" height="0.207"/>
  <linearGradient id="SVGID_86_" gradientUnits="userSpaceOnUse" x1="186.1831" y1="37.2734" x2="186.1831" y2="76.7739">
    <stop offset="0" style="stop-color:#000000;stop-opacity:0.3"/>
    <stop offset="0.0036" style="stop-color:#090909;stop-opacity:0.2978"/>
    <stop offset="0.0234" style="stop-color:#373737;stop-opacity:0.2857"/>
    <stop offset="0.0457" style="stop-color:#626262;stop-opacity:0.2721"/>
    <stop offset="0.0696" style="stop-color:#888888;stop-opacity:0.2574"/>
    <stop offset="0.0957" style="stop-color:#A8A8A8;stop-opacity:0.2415"/>
    <stop offset="0.1245" style="stop-color:#C4C4C4;stop-opacity:0.2239"/>
    <stop offset="0.1571" style="stop-color:#DADADA;stop-opacity:0.204"/>
    <stop offset="0.1951" style="stop-color:#EBEBEB;stop-opacity:0.1808"/>
    <stop offset="0.242" style="stop-color:#F6F6F6;stop-opacity:0.1521"/>
    <stop offset="0.3079" style="stop-color:#FDFDFD;stop-opacity:0.1118"/>
    <stop offset="0.4908" style="stop-color:#FFFFFF;stop-opacity:0"/>
    <stop offset="0.6805" style="stop-color:#FDFDFD;stop-opacity:0.1118"/>
    <stop offset="0.7489" style="stop-color:#F6F6F6;stop-opacity:0.1521"/>
    <stop offset="0.7976" style="stop-color:#EBEBEB;stop-opacity:0.1808"/>
    <stop offset="0.8371" style="stop-color:#DADADA;stop-opacity:0.204"/>
    <stop offset="0.8708" style="stop-color:#C4C4C4;stop-opacity:0.2239"/>
    <stop offset="0.9007" style="stop-color:#A8A8A8;stop-opacity:0.2415"/>
    <stop offset="0.9277" style="stop-color:#888888;stop-opacity:0.2574"/>
    <stop offset="0.9526" style="stop-color:#626262;stop-opacity:0.2721"/>
    <stop offset="0.9757" style="stop-color:#373737;stop-opacity:0.2857"/>
    <stop offset="0.9962" style="stop-color:#090909;stop-opacity:0.2978"/>
    <stop offset="1" style="stop-color:#000000;stop-opacity:0.3"/>
  </linearGradient>
  <polygon fill="url(#SVGID_86_)" points="187.933,75.774 187.069,76.774 184.433,76.774 184.433,37.273 186.979,37.383 &#xD;&#xA;&#x9;&#x9;187.933,38.273 &#x9;"/>
  <linearGradient id="SVGID_87_" gradientUnits="userSpaceOnUse" x1="175.6997" y1="97.0635" x2="175.6997" y2="17.7563">
    <stop offset="0.0061" style="stop-color:#666666;stop-opacity:0"/>
    <stop offset="0.0786" style="stop-color:#414141;stop-opacity:0.0865"/>
    <stop offset="0.1512" style="stop-color:#232323;stop-opacity:0.173"/>
    <stop offset="0.2134" style="stop-color:#111111;stop-opacity:0.2472"/>
    <stop offset="0.2577" style="stop-color:#0A0A0A;stop-opacity:0.3"/>
    <stop offset="0.4601" style="stop-color:#7A7A7A;stop-opacity:0"/>
    <stop offset="0.5091" style="stop-color:#898989;stop-opacity:0.0958"/>
    <stop offset="0.6025" style="stop-color:#AFAFAF;stop-opacity:0.2785"/>
    <stop offset="0.7296" style="stop-color:#ECECEC;stop-opacity:0.527"/>
    <stop offset="0.7669" style="stop-color:#FFFFFF;stop-opacity:0.6"/>
    <stop offset="1" style="stop-color:#828282;stop-opacity:0.2"/>
  </linearGradient>
  <path fill="url(#SVGID_87_)" d="M180.507,91.063l-11.615,6V17.756l11.615,6c0,0,2,1.016,2,2.763s0,58.664,0,61.001&#xD;&#xA;&#x9;&#x9;S180.507,91.063,180.507,91.063z"/>
  <linearGradient id="SVGID_88_" gradientUnits="userSpaceOnUse" x1="163.9985" y1="113.0913" x2="163.9985" y2="1.8262">
    <stop offset="0.0061" style="stop-color:#666666;stop-opacity:0"/>
    <stop offset="0.0786" style="stop-color:#414141;stop-opacity:0.0865"/>
    <stop offset="0.1512" style="stop-color:#232323;stop-opacity:0.173"/>
    <stop offset="0.2134" style="stop-color:#111111;stop-opacity:0.2472"/>
    <stop offset="0.2577" style="stop-color:#0A0A0A;stop-opacity:0.3"/>
    <stop offset="0.4601" style="stop-color:#7A7A7A;stop-opacity:0"/>
    <stop offset="0.5091" style="stop-color:#898989;stop-opacity:0.0958"/>
    <stop offset="0.6025" style="stop-color:#AFAFAF;stop-opacity:0.2785"/>
    <stop offset="0.7296" style="stop-color:#ECECEC;stop-opacity:0.527"/>
    <stop offset="0.7669" style="stop-color:#FFFFFF;stop-opacity:0.6"/>
    <stop offset="1" style="stop-color:#828282;stop-opacity:0.2"/>
  </linearGradient>
  <path fill="url(#SVGID_88_)" d="M167.507,104.674l-7.615,8.417V1.826l7.615,8.417c0,0,0.598,1.425,0.598,3.877s0,82.303,0,85.582&#xD;&#xA;&#x9;&#x9;C168.105,102.982,167.507,104.674,167.507,104.674z"/>
</svg>